<svg xmlns="http://www.w3.org/2000/svg" width="44" height="32" viewBox="0 0 44 32" aria-labelledby="amex-logo-title" role="img">
	<title id="amex-logo-title">Amex</title>
	<g fill="none" fill-rule="evenodd">
		<rect fill="#006DB0" width="44" height="32" rx="2" />
		<path d="M39.297 21.625h-2.085v-1.03h1.82s.664.076.664-.353c0-.403-.993-.372-.993-.372s-1.616.137-1.616-1.33c0-1.46 1.46-1.377 1.46-1.377h2.243v1.043h-1.805s-.625-.12-.625.32c0 .368.85.315.85.315S41 18.714 41 20.06c0 1.442-1.152 1.57-1.56 1.57-.09 0-.143-.005-.143-.005zm-10.403.007v-4.46h3.654v1.034h-2.476v.688h2.415v1.014h-2.415v.757h2.476v.967h-3.654zm6.272-.007H33.08v-1.03h1.828s.656.076.656-.353c0-.403-.992-.372-.992-.372s-1.617.137-1.617-1.33c0-1.46 1.46-1.377 1.46-1.377h2.25v1.043h-1.81s-.627-.12-.627.32c0 .368.85.315.85.315s1.79-.127 1.79 1.22c0 1.442-1.152 1.57-1.56 1.57-.09 0-.142-.005-.142-.005zm-15.802.008H18.34l-1.24-1.325-1.25 1.325H11.49v-4.477H15.756l1.344 1.42 1.35-1.413h.9v-.007h2.842s1.484-.16 1.484 1.314c0 1.317-.493 1.725-2.008 1.725H20.52v1.438h-1.156zm-1.468-2.2l1.453 1.557v-3.11l-1.454 1.553zm-5.226 1.232h2.468l1.157-1.232-1.157-1.226H12.67v.687h2.406v1.014H12.67v.757zm7.85-1.635h1.21c.352 0 .64-.19.64-.423 0-.234-.288-.424-.64-.424h-1.21v.847zm6.655 2.61v-.87s-.048-.68-.782-.68h-1.14v1.55h-1.172v-4.47h2.845s1.484-.173 1.484 1.31c0 .77-.657 1.042-.657 1.042s.562.257.562 1.013v1.105h-1.14zm-1.92-2.602h1.21c.35 0 .64-.19.64-.423 0-.235-.29-.423-.64-.423h-1.21v.846zm-.884-3.516h1.18V11.04h-1.18v4.482zm-9.076-.015v-4.47h3.656v1.044h-2.476v.69h2.414v1.013h-2.414v.757h2.476v.967h-3.656zm-1.835 0v-3.085l-1.47 3.085h-.96l-1.476-3.07v3.07H7.24l-.405-.937h-2.14l-.414.937H3l1.945-4.47h1.648l1.78 4.107v-4.106h1.852l1.29 2.775 1.28-2.775h1.85v4.47H13.46zm-8.265-2.08h1.14l-.57-1.33-.57 1.33zm31.282 2.08L34.62 12.52v2.987H32.32l-.413-.937h-2.14l-.408.937H27.525s-1.577-.22-1.577-2.11c0-2.48 1.788-2.382 1.85-2.397l1.444.038v1.006l-1.186.015s-.774 0-.868.974c-.01.113-.016.215-.015.31.005 1.512 1.354 1.043 1.4 1.03l1.45-3.336h1.64l1.758 4.053V11.04h1.656l1.835 2.942v-2.942h1.18v4.47h-1.618zm-6.21-2.08h1.142l-.563-1.33-.58 1.33zm-7.615 2.08v-.87s-.047-.68-.78-.68h-1.14v1.55h-1.173v-4.47H22.4s1.484-.173 1.484 1.31c0 .77-.656 1.043-.656 1.043s.57.257.57 1.013v1.104h-1.148zm-1.92-2.6h1.21c.35 0 .64-.19.64-.425 0-.234-.29-.423-.64-.423h-1.21v.846z" fill="#FFF" />
	</g>
</svg>
