<svg xmlns="http://www.w3.org/2000/svg" width="44" height="32" viewBox="0 0 44 32" aria-labelledby="discover-logo-title" role="img">
	<title id="discover-logo-title">Discover</title>
	<g fill-rule="nonzero" fill="none">
		<rect fill="#ED7523" width="44" height="32" rx="2" />
		<path d="M38.13 15.968h-.35v-1.86h.35c.77 0 1.12.344 1.12.895 0 .62-.35.965-1.12.965zm2.38-1.034c0-1.17-.77-1.792-2.17-1.792h-1.75v6.135h1.19v-2.482h.14l1.61 2.482H41l-1.89-2.55c.84-.14 1.47-.897 1.4-1.793zm-8.048 4.343h3.36v-1.034h-2.17v-1.655h2.1v-1.033h-2.1v-1.38h2.17v-1.033h-3.36v6.135zm-3.5-2l-1.608-4.135h-1.26l2.59 6.272h.63l2.588-6.272h-1.26l-1.68 4.136zm-14.205-1.033c0 1.723 1.4 3.17 3.15 3.17.56 0 1.05-.137 1.54-.344v-1.38c-.35.415-.84.69-1.4.69-1.12 0-2.03-.827-2.03-1.93v-.137c-.07-1.103.84-2.068 1.96-2.137.56 0 1.12.276 1.47.69v-1.38c-.42-.275-.98-.344-1.47-.344-1.82-.138-3.22 1.31-3.22 3.102zm-2.17-.758c-.7-.276-.91-.414-.91-.76.07-.412.42-.757.84-.688.35 0 .7.207.98.483l.63-.826c-.49-.414-1.12-.69-1.75-.69-.98-.07-1.82.69-1.89 1.655v.067c0 .828.35 1.31 1.47 1.655.28.07.56.206.84.344.21.138.35.345.35.62 0 .483-.42.897-.84.897h-.07c-.56 0-1.05-.345-1.26-.827l-.77.758c.42.758 1.26 1.17 2.1 1.17 1.12.07 2.03-.757 2.1-1.86v-.206c-.07-.827-.42-1.24-1.82-1.792zm-4.058 3.79h1.188v-6.134h-1.19v6.135zM6.15 17.76c-.42.345-1.05.552-1.61.483h-.35v-4.067h.35c.56-.07 1.19.138 1.61.483.42.412.63.963.63 1.515 0 .62-.21 1.172-.63 1.585zm-1.4-4.618H3v6.135h1.75c.77.068 1.54-.207 2.17-.69.7-.62 1.12-1.447 1.12-2.343.07-1.654-1.26-3.033-2.94-3.102h-.35zM23.015 13c-1.75 0-3.22 1.378-3.22 3.17 0 1.724 1.4 3.17 3.22 3.24 1.82.07 3.22-1.378 3.29-3.17-.07-1.793-1.47-3.24-3.29-3.24z" fill="#FFF" />
	</g>
</svg>
