<?xml version="1.0" encoding="utf-8"?>
<!-- Generator: Adobe Illustrator 23.0.2, SVG Export Plug-In . SVG Version: 6.00 Build 0)  -->
<svg version="1.1" id="Layer_1" xmlns="http://www.w3.org/2000/svg" xmlns:xlink="http://www.w3.org/1999/xlink" x="0px" y="0px"
	 viewBox="0 0 126.67 77.67" style="enable-background:new 0 0 126.67 77.67;" xml:space="preserve">
<style type="text/css">
	.st0{fill:#FF5F00;}
	.st1{fill:#EB001B;}
	.st2{fill:#F79E1B;}
</style>
<g>
	<g id="XMLID_23_">
		<rect x="47.87" y="10.36" class="st0" width="31.5" height="56.61"/>
		<path id="XMLID_35_" class="st1" d="M49.88,38.67c0-11.48,5.38-21.71,13.75-28.3c-6.12-4.82-13.85-7.7-22.25-7.7
			c-19.88,0-36,16.12-36,36c0,19.88,16.12,36,36,36c8.4,0,16.12-2.88,22.25-7.7C55.25,60.38,49.88,50.15,49.88,38.67z"/>
		<path class="st2" d="M121.87,38.67c0,19.88-16.12,36-36,36c-8.4,0-16.12-2.88-22.25-7.7c8.37-6.59,13.75-16.82,13.75-28.3
			S72,16.96,63.62,10.36c6.12-4.82,13.85-7.7,22.25-7.7C105.75,2.67,121.87,18.78,121.87,38.67z"/>
		<path class="st2" d="M118.44,60.97v-1.16h0.47v-0.24h-1.19v0.24h0.47v1.16H118.44z M120.75,60.97v-1.4h-0.36l-0.42,0.96
			l-0.42-0.96h-0.36v1.4h0.26v-1.05l0.39,0.91h0.27l0.39-0.91v1.06H120.75z"/>
	</g>
</g>
</svg>
