<svg xmlns="http://www.w3.org/2000/svg" width="44" height="32" viewBox="0 0 44 32" aria-labelledby="visa-logo-title" role="img">
	<title id="visa-logo-title">Visa</title>
	<g fill-rule="nonzero" fill="none">
		<rect fill="#FFF" width="44" height="32" rx="2" />
		<path d="M14 21.362h-2.77L9.155 13.26c-.098-.372-.308-.702-.615-.857-.77-.39-1.616-.7-2.54-.857v-.312h4.46c.617 0 1.08.468 1.156 1.012l1.077 5.844 2.768-6.856h2.694L14 21.362zm5.693 0h-2.615l2.153-10.128h2.617l-2.154 10.128zm5.538-7.323c.077-.546.54-.858 1.078-.858.847-.078 1.77.078 2.54.467l.46-2.18c-.77-.313-1.616-.47-2.384-.47-2.54 0-4.386 1.403-4.386 3.35 0 1.48 1.308 2.26 2.232 2.728 1 .467 1.384.78 1.307 1.246 0 .7-.77 1.013-1.538 1.013-.924 0-1.848-.234-2.693-.624l-.462 2.182c.924.39 1.923.545 2.846.545 2.848.077 4.617-1.324 4.617-3.428 0-2.65-3.616-2.805-3.616-3.973zM38 21.36l-2.077-10.128h-2.23c-.462 0-.924.312-1.078.78L28.77 21.36h2.692l.537-1.48h3.308l.307 1.48H38zm-3.923-7.4l.77 3.816H32.69l1.385-3.817z" fill="#1434cb" />
	</g>
</svg>
